<svg xmlns="http://www.w3.org/2000/svg" viewBox="0 0 145.18 135.79"><defs><style>.cls-1{fill:#b1b1b1;}</style></defs><g id="Layer_2" data-name="Layer 2"><g id="Layer_2-2" data-name="Layer 2"><g id="easyng"><path class="cls-1" d="M117.74,18.15V0h-9.06V18.15h-18V9.06H81.62v9.09H63.49V0H54.43V18.15H36.21V9.06H27.15v9.09H8.74v18.1H0v9.06H8.74V72.44H0V81.5H8.74v27.25H0v9.07H8.74v18H145.18V18.15Zm18.38,108.57H17.8V27.21H136.12Z"/><path class="cls-1" d="M72.77,79.67C84.6,93.54,98,109.26,126.71,109.26h0v-9.07h0c-24.52,0-35.46-12.82-47-26.4-12.15-14.25-24.72-29-52.3-29v9.06C50.77,53.87,61.46,66.41,72.77,79.67Z"/></g></g></g></svg>