<svg xmlns="http://www.w3.org/2000/svg" xmlns:xlink="http://www.w3.org/1999/xlink" viewBox="0 0 125.4 162.33"><defs><style>.cls-1{fill:#fff;}.cls-2{fill:#111;}.cls-3{fill:url(#linear-gradient);}</style><linearGradient id="linear-gradient" x1="35.15" y1="63.69" x2="90.72" y2="125.82" gradientUnits="userSpaceOnUse"><stop offset="0" stop-color="#0048d9"/><stop offset="0.22" stop-color="#2073ec"/><stop offset="0.41" stop-color="#3793fa"/><stop offset="0.52" stop-color="#409fff"/><stop offset="0.63" stop-color="#348ff8"/><stop offset="0.86" stop-color="#1666e6"/><stop offset="1" stop-color="#0048d9"/></linearGradient></defs><g id="Layer_2" data-name="Layer 2"><g id="Layer_2-2" data-name="Layer 2"><g id="file"><polygon class="cls-1" points="124.91 161.83 0.5 161.83 0.5 0.5 88.37 0.5 96.2 0.5 124.91 29.2 124.91 37.03 124.91 161.83"/><path class="cls-2" d="M125.4,162.33H0V0H96.41l29,29ZM1,161.33H124.4V29.41L96,1H1Z"/><polygon class="cls-1" points="96.2 0.5 96.2 29.2 124.91 29.2 96.2 0.5"/><path class="cls-2" d="M124.9,29.59H96.2a.39.39,0,0,1-.39-.39V.5a.39.39,0,0,1,.67-.28l28.7,28.7a.41.41,0,0,1,.09.43A.39.39,0,0,1,124.9,29.59Zm-28.3-.78H124L96.6,1.45Z"/><rect class="cls-3" x="21.03" y="52.82" width="83.35" height="83.35"/><polygon class="cls-1" points="86.12 94.5 62.7 108.02 39.28 121.54 39.28 94.5 39.28 67.46 62.7 80.98 86.12 94.5"/></g></g></g></svg>