<svg xmlns="http://www.w3.org/2000/svg" viewBox="0 0 126.94 126.9"><defs><style>.cls-1{fill:#b1b1b1;}</style></defs><g id="Layer_2" data-name="Layer 2"><g id="Layer_2-2" data-name="Layer 2"><g id="frameBlending"><path class="cls-1" d="M36.31,0V99.72h90.63V0Zm18.1,90.65H45.32V81.57h9.09Zm0-18.15H45.32V63.42h9.09Zm0-18H45.32V45.37h9.09Zm0-18.2H45.32V27.18h9.09Zm0-18.1H45.32V9.08h9.09ZM99.6,54.37H63.42V45.28H99.6Zm18.24,36.28h-9.08V81.57h9.08Zm0-18.15h-9.08V63.42h9.08Zm0-18h-9.08V45.37h9.08Zm0-18.2h-9.08V27.18h9.08Zm0-18.1h-9.08V9.08h9.08Z"/><path class="cls-1" d="M81.53,108.74v9.09H72.45v-9.09H27.13V81.55h0V72.46h0V27.18H0V126.9H90.64V108.74ZM18.1,117.83H9v-9.09H18.1Zm0-18.15H9V90.59H18.1Zm0-18H9V72.55H18.1Zm0-18.2H9V54.35H18.1Zm0-18.1H9V36.25H18.1Z"/></g></g></g></svg>