<svg xmlns="http://www.w3.org/2000/svg" viewBox="0 0 145 107.74"><defs><style>.cls-1{fill:#646464;}.cls-2{fill:#b1b1b1;}</style></defs><g id="Layer_2" data-name="Layer 2"><g id="Layer_2-2" data-name="Layer 2"><g id="hide"><rect class="cls-1" y="62.53" width="145" height="45.21"/><polygon class="cls-2" points="137.95 34.45 128.89 34.45 128.89 44 20.14 44 20.14 34.45 11.08 34.45 11.08 53.07 60.92 53.07 60.92 103.25 88.11 103.25 88.11 53.07 137.95 53.07 137.95 34.45"/><path class="cls-2" d="M74.52,0a44,44,0,0,0-44,44h88A44,44,0,0,0,74.52,0ZM54.62,43.16A13.17,13.17,0,1,1,67.79,30,13.16,13.16,0,0,1,54.62,43.16Zm38.45,0A13.17,13.17,0,1,1,106.24,30,13.17,13.17,0,0,1,93.07,43.16Z"/></g></g></g></svg>