<svg xmlns="http://www.w3.org/2000/svg" viewBox="0 0 163 108.93"><defs><style>.cls-1{fill:#b1b1b1;}</style></defs><g id="Layer_2" data-name="Layer 2"><g id="Layer_2-2" data-name="Layer 2"><g id="mini-flowchat"><polygon class="cls-1" points="135.94 72.5 135.94 63.44 135.94 63.44 135.94 54.38 135.94 54.38 135.94 45.31 99.67 45.31 99.67 54.38 81.23 54.38 81.23 17.61 99.67 17.61 99.67 27.19 135.94 27.19 135.94 17.61 135.94 17.61 135.94 8.55 135.94 8.55 135.94 0 99.67 0 99.67 8.55 54.42 8.55 54.42 0 18.11 0 18.11 8.55 0 8.55 0 17.61 18.11 17.61 18.11 27.19 54.42 27.19 54.42 17.61 72.17 17.61 72.17 63.44 81.23 63.44 81.23 63.44 99.67 63.44 99.67 72.5 135.94 72.5"/><polygon class="cls-1" points="108.88 81.8 136 108.93 163 81.93 108.88 81.8"/></g></g></g></svg>