<svg xmlns="http://www.w3.org/2000/svg" viewBox="0 0 147.81 167.96"><defs><style>.cls-1{fill:#b1b1b1;}</style></defs><g id="Layer_2" data-name="Layer 2"><g id="Layer_2-2" data-name="Layer 2"><g id="toggleLock"><path class="cls-1" d="M127.36,69.59H102.71V47.12a22.31,22.31,0,0,0-3.88-12.61l0-.08a22.44,22.44,0,0,0-18.53-9.78H67.62A22.44,22.44,0,0,0,45.19,47.09v22.5H20.53V47.09A47.09,47.09,0,0,1,67.62,0H80.25a47.08,47.08,0,0,1,38.83,20.44l.07.1a46.93,46.93,0,0,1,8.21,26.58Z"/><path class="cls-1" d="M0,69.59V168H147.81V69.59Zm82.16,54.72V152H65.73V124.3a20.07,20.07,0,1,1,16.43,0Z"/></g></g></g></svg>